HIERARCHY
ROOT Root
{
  OFFSET 0.0 0.0 0.0
  CHANNELS 6 Xposition Yposition Zposition Zrotation Yrotation Xrotation
  JOINT Hips
  {
    OFFSET 0.0 100.0 0.0
    CHANNELS 6 Xposition Yposition Zposition Zrotation Yrotation Xrotation
    JOINT Spine1
    {
      OFFSET 5.003913 -0.037094 -0.013727
      CHANNELS 3 Zrotation Yrotation Xrotation
      JOINT Spine2
      {
        OFFSET 7.125363 -1e-06 0.0
        CHANNELS 3 Zrotation Yrotation Xrotation
        JOINT Chest
        {
          OFFSET 7.594027 1e-06 0.0
          CHANNELS 3 Zrotation Yrotation Xrotation
          JOINT Neck1
          {
            OFFSET 26.313086 -0.460272 -0.181672
            CHANNELS 3 Zrotation Yrotation Xrotation
            JOINT Neck2
            {
              OFFSET 8.045911 0.0 0.0
              CHANNELS 3 Zrotation Yrotation Xrotation
              JOINT Head
              {
                OFFSET 6.432774 0.0 0.0
                CHANNELS 3 Zrotation Yrotation Xrotation
                JOINT HeadEnd
                {
                  OFFSET 16.169773 0.06451 0.00362
                  CHANNELS 3 Zrotation Yrotation Xrotation
                }
                JOINT Jaw
                {
                  OFFSET 0.108741 3.12938 0.002639
                  CHANNELS 3 Zrotation Yrotation Xrotation
                }
                JOINT LeftEye
                {
                  OFFSET 4.45173 8.166359 3.206392
                  CHANNELS 3 Zrotation Yrotation Xrotation
                }
                JOINT RightEye
                {
                  OFFSET 4.436895 8.135758 -3.222429
                  CHANNELS 3 Zrotation Yrotation Xrotation
                }
              }
            }
          }
          JOINT LeftShoulder
          {
            OFFSET 23.218927 5.195579 1.621656
            CHANNELS 3 Zrotation Yrotation Xrotation
            JOINT LeftArm
            {
              OFFSET 15.902118 2e-06 -2e-06
              CHANNELS 3 Zrotation Yrotation Xrotation
              JOINT LeftForeArm
              {
                OFFSET 28.739307 0.0 -1e-06
                CHANNELS 3 Zrotation Yrotation Xrotation
                JOINT LeftHand
                {
                  OFFSET 27.093981 -4e-06 0.0
                  CHANNELS 3 Zrotation Yrotation Xrotation
                  JOINT LeftHandThumb1
                  {
                    OFFSET 2.276781 3.380274 0.83384
                    CHANNELS 3 Zrotation Yrotation Xrotation
                    JOINT LeftHandThumb2
                    {
                      OFFSET 4.705309 -1e-06 -1e-06
                      CHANNELS 3 Zrotation Yrotation Xrotation
                      JOINT LeftHandThumb3
                      {
                        OFFSET 2.798515 0.0 3e-06
                        CHANNELS 3 Zrotation Yrotation Xrotation
                        JOINT LeftHandThumbEnd
                        {
                          OFFSET 3.180793 4e-06 -4e-06
                          CHANNELS 3 Zrotation Yrotation Xrotation
                        }
                      }
                    }
                  }
                  JOINT LeftHandIndex1
                  {
                    OFFSET 3.247786 2.352677 0.137192
                    CHANNELS 3 Zrotation Yrotation Xrotation
                    JOINT LeftHandIndex2
                    {
                      OFFSET 6.367095 1e-06 0.0
                      CHANNELS 3 Zrotation Yrotation Xrotation
                      JOINT LeftHandIndex3
                      {
                        OFFSET 3.662364 0.0 0.0
                        CHANNELS 3 Zrotation Yrotation Xrotation
                        JOINT LeftHandIndex4
                        {
                          OFFSET 2.329242 4e-06 -4e-06
                          CHANNELS 3 Zrotation Yrotation Xrotation
                          JOINT LeftHandIndexEnd
                          {
                            OFFSET 2.767823 1e-06 0.0
                            CHANNELS 3 Zrotation Yrotation Xrotation
                          }
                        }
                      }
                    }
                  }
                  JOINT LeftHandMiddle1
                  {
                    OFFSET 3.163612 0.945023 -0.406112
                    CHANNELS 3 Zrotation Yrotation Xrotation
                    JOINT LeftHandMiddle2
                    {
                      OFFSET 6.276789 3e-06 0.0
                      CHANNELS 3 Zrotation Yrotation Xrotation
                      JOINT LeftHandMiddle3
                      {
                        OFFSET 4.35652 -1e-06 4e-06
                        CHANNELS 3 Zrotation Yrotation Xrotation
                        JOINT LeftHandMiddle4
                        {
                          OFFSET 2.996877 0.0 8e-06
                          CHANNELS 3 Zrotation Yrotation Xrotation
                          JOINT LeftHandMiddleEnd
                          {
                            OFFSET 2.323256 3e-06 -4e-06
                            CHANNELS 3 Zrotation Yrotation Xrotation
                          }
                        }
                      }
                    }
                  }
                  JOINT LeftHandRing1
                  {
                    OFFSET 2.882606 -0.309162 0.107445
                    CHANNELS 3 Zrotation Yrotation Xrotation
                    JOINT LeftHandRing2
                    {
                      OFFSET 6.033198 0.0 4e-06
                      CHANNELS 3 Zrotation Yrotation Xrotation
                      JOINT LeftHandRing3
                      {
                        OFFSET 4.350578 3e-06 0.0
                        CHANNELS 3 Zrotation Yrotation Xrotation
                        JOINT LeftHandRing4
                        {
                          OFFSET 2.651321 2e-06 -7e-06
                          CHANNELS 3 Zrotation Yrotation Xrotation
                          JOINT LeftHandRingEnd
                          {
                            OFFSET 1.937663 1e-06 -4e-06
                            CHANNELS 3 Zrotation Yrotation Xrotation
                          }
                        }
                      }
                    }
                  }
                  JOINT LeftHandPinky1
                  {
                    OFFSET 2.865315 -1.525436 0.575687
                    CHANNELS 3 Zrotation Yrotation Xrotation
                    JOINT LeftHandPinky2
                    {
                      OFFSET 5.54936 1e-06 -8e-06
                      CHANNELS 3 Zrotation Yrotation Xrotation
                      JOINT LeftHandPinky3
                      {
                        OFFSET 3.070974 0.0 -4e-06
                        CHANNELS 3 Zrotation Yrotation Xrotation
                        JOINT LeftHandPinky4
                        {
                          OFFSET 1.549672 1e-06 0.0
                          CHANNELS 3 Zrotation Yrotation Xrotation
                          JOINT LeftHandPinkyEnd
                          {
                            OFFSET 1.952123 0.0 0.0
                            CHANNELS 3 Zrotation Yrotation Xrotation
                          }
                        }
                      }
                    }
                  }
                }
              }
            }
          }
          JOINT RightShoulder
          {
            OFFSET 23.161716 5.296122 -1.380114
            CHANNELS 3 Zrotation Yrotation Xrotation
            JOINT RightArm
            {
              OFFSET -16.027195 -2e-06 1.1e-05
              CHANNELS 3 Zrotation Yrotation Xrotation
              JOINT RightForeArm
              {
                OFFSET -28.736639 4e-06 2e-06
                CHANNELS 3 Zrotation Yrotation Xrotation
                JOINT RightHand
                {
                  OFFSET -27.133619 6e-06 0.0
                  CHANNELS 3 Zrotation Yrotation Xrotation
                  JOINT RightHandThumb1
                  {
                    OFFSET -2.274328 -3.351035 -0.83067
                    CHANNELS 3 Zrotation Yrotation Xrotation
                    JOINT RightHandThumb2
                    {
                      OFFSET -4.703594 -3e-06 2e-06
                      CHANNELS 3 Zrotation Yrotation Xrotation
                      JOINT RightHandThumb3
                      {
                        OFFSET -2.794935 -4e-06 -3e-06
                        CHANNELS 3 Zrotation Yrotation Xrotation
                        JOINT RightHandThumbEnd
                        {
                          OFFSET -3.183852 4e-06 1e-06
                          CHANNELS 3 Zrotation Yrotation Xrotation
                        }
                      }
                    }
                  }
                  JOINT RightHandIndex1
                  {
                    OFFSET -3.253496 -2.33755 -0.127667
                    CHANNELS 3 Zrotation Yrotation Xrotation
                    JOINT RightHandIndex2
                    {
                      OFFSET -6.344434 0.0 0.0
                      CHANNELS 3 Zrotation Yrotation Xrotation
                      JOINT RightHandIndex3
                      {
                        OFFSET -3.654871 0.0 -8e-06
                        CHANNELS 3 Zrotation Yrotation Xrotation
                        JOINT RightHandIndex4
                        {
                          OFFSET -2.327586 -1e-06 0.0
                          CHANNELS 3 Zrotation Yrotation Xrotation
                          JOINT RightHandIndexEnd
                          {
                            OFFSET -2.770001 3e-06 8e-06
                            CHANNELS 3 Zrotation Yrotation Xrotation
                          }
                        }
                      }
                    }
                  }
                  JOINT RightHandMiddle1
                  {
                    OFFSET -3.168223 -0.944764 0.411762
                    CHANNELS 3 Zrotation Yrotation Xrotation
                    JOINT RightHandMiddle2
                    {
                      OFFSET -6.266691 -1e-06 -4e-06
                      CHANNELS 3 Zrotation Yrotation Xrotation
                      JOINT RightHandMiddle3
                      {
                        OFFSET -4.348901 0.0 0.0
                        CHANNELS 3 Zrotation Yrotation Xrotation
                        JOINT RightHandMiddle4
                        {
                          OFFSET -3.00024 2e-06 -4e-06
                          CHANNELS 3 Zrotation Yrotation Xrotation
                          JOINT RightHandMiddleEnd
                          {
                            OFFSET -2.321477 -4e-06 -4e-06
                            CHANNELS 3 Zrotation Yrotation Xrotation
                          }
                        }
                      }
                    }
                  }
                  JOINT RightHandRing1
                  {
                    OFFSET -2.885654 0.293261 -0.119232
                    CHANNELS 3 Zrotation Yrotation Xrotation
                    JOINT RightHandRing2
                    {
                      OFFSET -6.032835 -1e-06 -4e-06
                      CHANNELS 3 Zrotation Yrotation Xrotation
                      JOINT RightHandRing3
                      {
                        OFFSET -4.33881 0.0 -4e-06
                        CHANNELS 3 Zrotation Yrotation Xrotation
                        JOINT RightHandRing4
                        {
                          OFFSET -2.654903 -4e-06 -4e-06
                          CHANNELS 3 Zrotation Yrotation Xrotation
                          JOINT RightHandRingEnd
                          {
                            OFFSET -1.935122 0.0 4e-06
                            CHANNELS 3 Zrotation Yrotation Xrotation
                          }
                        }
                      }
                    }
                  }
                  JOINT RightHandPinky1
                  {
                    OFFSET -2.866241 1.503904 -0.60527
                    CHANNELS 3 Zrotation Yrotation Xrotation
                    JOINT RightHandPinky2
                    {
                      OFFSET -5.553177 -2e-06 0.0
                      CHANNELS 3 Zrotation Yrotation Xrotation
                      JOINT RightHandPinky3
                      {
                        OFFSET -3.062664 -1e-06 -4e-06
                        CHANNELS 3 Zrotation Yrotation Xrotation
                        JOINT RightHandPinky4
                        {
                          OFFSET -1.546529 2e-06 4e-06
                          CHANNELS 3 Zrotation Yrotation Xrotation
                          JOINT RightHandPinkyEnd
                          {
                            OFFSET -1.952341 0.0 -4e-06
                            CHANNELS 3 Zrotation Yrotation Xrotation
                          }
                        }
                      }
                    }
                  }
                }
              }
            }
          }
        }
      }
    }
    JOINT LeftLeg
    {
      OFFSET -8.443107 2.567604 10.043214
      CHANNELS 3 Zrotation Yrotation Xrotation
      JOINT LeftShin
      {
        OFFSET 43.229198 1e-06 -1e-06
        CHANNELS 3 Zrotation Yrotation Xrotation
        JOINT LeftFoot
        {
          OFFSET 42.298611 1e-06 1e-06
          CHANNELS 3 Zrotation Yrotation Xrotation
          JOINT LeftToeBase
          {
            OFFSET 14.165858 1e-06 0.0
            CHANNELS 3 Zrotation Yrotation Xrotation
            JOINT LeftToeEnd
            {
              OFFSET 6.7141 -0.234461 0.0
              CHANNELS 3 Zrotation Yrotation Xrotation
            }
          }
        }
      }
    }
    JOINT RightLeg
    {
      OFFSET -8.303923 2.592729 -10.047278
      CHANNELS 3 Zrotation Yrotation Xrotation
      JOINT RightShin
      {
        OFFSET -43.369682 0.0 1e-06
        CHANNELS 3 Zrotation Yrotation Xrotation
        JOINT RightFoot
        {
          OFFSET -42.260784 4e-06 2e-06
          CHANNELS 3 Zrotation Yrotation Xrotation
          JOINT RightToeBase
          {
            OFFSET -14.222245 -2e-06 -1e-06
            CHANNELS 3 Zrotation Yrotation Xrotation
            JOINT RightToeEnd
            {
              OFFSET -6.660062 0.232574 -2e-06
              CHANNELS 3 Zrotation Yrotation Xrotation
            }
          }
        }
      }
    }
  }
}
MOTION
Frames: 5
Frame Time: 0.03333333333333333
0.0 0.0 0.0 0.0 -0.0 0.0 -2.210432 99.369965 3.338743 90.549263 4.384477 95.26017 -1.770866 -0.638934 -0.041908 -11.133715 -0.648196 -0.030671 19.435431 0.466231 -2.951885 19.313475 0.956257 2.705956 -2.607854 -0.688998 -0.83071 -33.290428 -0.67059 -1.81828 6e-06 0.0 0.0 0.039503 -0.014733 -0.055444 0.064642 -0.067797 -0.064741 0.093939 0.033682 -0.038602 -137.28363 -76.265274 146.720428 30.051319 -31.337862 -62.479176 66.824051 -0.644041 0.831453 -5.407325 11.485392 -74.154961 17.636627 -26.322737 52.411198 -19.46666 -14.395597 29.410395 -1e-06 -8.774819 -2e-06 16.79423 -17.746296 5.81286 -0.609779 -1.795655 -3.889328 -4.807087 -11.046809 -2.93785 7e-06 -20.976013 -1e-06 -5.019973 -25.033556 -4.031876 8e-06 -0.0 -0.0 -10.634536 -5.686973 -3.565588 10.573272 -17.922951 -3.113902 2e-06 -13.821209 2e-06 -0.501779 -31.181505 -4.027016 -12.008409 -61.006691 7.366465 -13.982713 -7.150198 -2.875043 13.772727 -8.401491 -3.218242 0.347733 -34.211544 0.771656 -0.963032 -17.73337 2.621021 1e-06 -0.0 0.0 -17.346422 -20.095219 -4.201779 21.757557 -1.638373 3.866426 2e-06 -6.338823 2e-06 -1.697587 -22.591742 -6.194005 -1e-06 -2e-06 -2e-06 18.718971 -77.43557 172.308853 29.92437 -24.173571 -54.14753 67.660316 -2.912201 0.281666 -14.771418 13.21219 -53.741505 22.182116 -20.375895 49.933319 -16.701813 -16.743525 28.47653 -3e-06 -12.690599 1e-06 16.875191 -17.462881 2.726495 -0.10592 -1.513855 -4.27588 -5.03904 -5.61287 -2.953556 5e-06 -11.02052 -4e-06 -6.111296 -15.895328 -3.840471 -0.0 1e-06 -1e-06 -10.283367 -5.680285 -4.341841 11.028294 -11.302403 -2.372633 -1.384268 -14.238577 -6.320121 -0.625435 -26.924183 -3.827598 -4.971928 -49.995491 -2.991026 -13.708523 -7.363471 -3.720942 18.141148 -14.052739 -3.242673 8e-06 -18.787266 -2e-06 -0.42971 -8.456042 2.555503 0.0 1e-06 1e-06 -15.923532 -20.094479 -5.473586 30.419207 -7.190827 1.735927 3e-06 -8.162925 -1e-06 -1.8619 -22.861467 -6.167942 -2e-06 -2e-06 1e-06 -178.802963 -3.885813 0.259243 16.413605 -0.136619 0.013663 -82.051033 -4.026021 -6.448899 -5.286347 1.622004 2.149934 -1.0 1e-06 -0.0 3.912101 -2.793177 -11.818176 15.636494 0.018506 -0.045441 -83.20816 -6.993694 -5.972817 -5.604772 0.486091 1.600913 -1.000003 -0.0 -0.0 
0.0 0.0 0.0 0.0 -0.0 0.0 -2.240158 99.356422 3.335491 90.582054 4.397668 95.41053 -1.814533 -0.669187 -0.047219 -11.172014 -0.642677 -0.027558 19.368786 0.471221 -2.939851 19.20092 0.828278 2.687421 -2.595478 -0.701294 -0.742752 -33.048401 -0.656869 -1.819135 7e-06 0.0 -0.0 0.033144 -0.013411 -0.049858 0.067926 -0.062541 -0.060168 0.100173 0.030919 -0.032155 -137.423798 -76.272125 146.773712 29.955553 -31.072037 -61.513168 66.744881 -0.630324 0.834028 -5.527109 11.198979 -74.376167 17.636633 -26.322735 52.41119 -19.466663 -14.3956 29.410385 -2e-06 -8.77482 -2e-06 16.731756 -17.735594 5.86751 -0.609775 -1.795652 -3.889327 -4.807087 -11.046811 -2.937848 6e-06 -20.976019 0.0 -5.019975 -25.03356 -4.031875 7e-06 1e-06 1e-06 -10.634533 -5.68697 -3.565585 10.573278 -17.922955 -3.113901 3e-06 -13.821209 2e-06 -0.501782 -31.181505 -4.027012 -11.949707 -60.964146 7.3421 -13.982714 -7.150196 -2.87504 13.77273 -8.401495 -3.218242 0.347735 -34.211555 0.771655 -0.96303 -17.733372 2.62102 2e-06 -0.0 0.0 -17.346416 -20.095215 -4.201779 21.757563 -1.638375 3.866427 3e-06 -6.338824 1e-06 -1.697593 -22.591745 -6.194005 -1e-06 -4e-06 -2e-06 18.616268 -77.260979 172.529388 29.535006 -23.736191 -54.102367 67.108009 -2.813514 0.396918 -14.535013 13.012831 -53.918182 22.182108 -20.375895 49.933308 -16.701811 -16.743528 28.476528 -3e-06 -12.690601 1e-06 16.821089 -17.418751 2.740601 -0.105919 -1.513855 -4.275881 -5.039042 -5.612875 -2.953553 5e-06 -11.020523 -3e-06 -6.111297 -15.895334 -3.840469 -0.0 0.0 0.0 -10.28337 -5.680287 -4.341839 11.028291 -11.302406 -2.372631 -1.384269 -14.238584 -6.320123 -0.625442 -26.924194 -3.827599 -4.993037 -49.936626 -2.939871 -13.708526 -7.363478 -3.720939 18.14115 -14.052738 -3.242676 6e-06 -18.787271 -3e-06 -0.429714 -8.456043 2.555504 1e-06 -0.0 0.0 -15.923536 -20.094484 -5.473583 30.41921 -7.190825 1.735928 2e-06 -8.162928 -1e-06 -1.861906 -22.861473 -6.167942 -3e-06 -2e-06 -1e-06 -178.833252 -3.892349 0.324617 16.510399 -0.138474 0.023119 -82.005096 -3.938278 -6.499124 -5.285158 1.605879 2.143095 -1.0 -0.0 0.0 3.90371 -2.799912 -11.69659 15.768949 0.025151 -0.046841 -83.285904 -7.218754 -5.998858 -5.607831 0.49425 1.598502 -1.000003 0.0 -0.0 
0.0 0.0 0.0 0.0 -0.0 0.0 -2.284544 99.339096 3.334246 90.596832 4.387691 95.491562 -1.854552 -0.687837 -0.066232 -11.216917 -0.645031 -0.04171 19.289141 0.473121 -2.914139 19.109331 0.758847 2.661244 -2.58401 -0.715409 -0.635399 -32.852177 -0.626368 -1.758722 7e-06 -0.0 -0.0 0.032282 -0.010648 -0.036676 0.068197 -0.055075 -0.048339 0.101097 0.029015 -0.01819 -137.489258 -76.268982 146.761292 29.75852 -30.868029 -60.469536 66.75869 -0.500488 0.830651 -5.524862 10.93962 -74.232994 17.636625 -26.322729 52.411186 -19.466661 -14.395598 29.410389 -1e-06 -8.774822 0.0 16.638998 -17.730824 5.945973 -0.609775 -1.795655 -3.889328 -4.807089 -11.046809 -2.93785 4e-06 -20.976015 -1e-06 -5.019972 -25.03356 -4.03188 5e-06 1e-06 0.0 -10.634535 -5.686971 -3.565588 10.573276 -17.922951 -3.113904 2e-06 -13.82121 3e-06 -0.501779 -31.181505 -4.027015 -11.913017 -60.943443 7.328895 -13.982712 -7.150198 -2.875042 13.77273 -8.40149 -3.218243 0.347732 -34.211552 0.771656 -0.963033 -17.733368 2.621021 0.0 0.0 -0.0 -17.346418 -20.095221 -4.201782 21.757559 -1.638375 3.866429 2e-06 -6.338825 -0.0 -1.697587 -22.591749 -6.194006 -1e-06 -3e-06 -1e-06 18.658001 -77.085533 172.584015 29.274178 -23.546532 -53.956768 67.434929 -2.583647 0.502015 -14.396207 13.020134 -53.549816 22.182116 -20.375887 49.9333 -16.701811 -16.74353 28.476524 -2e-06 -12.6906 -0.0 16.770031 -17.415564 2.731504 -0.105919 -1.513854 -4.27588 -5.039042 -5.612872 -2.953558 6e-06 -11.02052 -3e-06 -6.111295 -15.89533 -3.84047 0.0 0.0 -1e-06 -10.283372 -5.680285 -4.341835 11.028296 -11.302404 -2.372632 -1.384268 -14.238581 -6.320121 -0.625438 -26.924191 -3.827601 -4.975608 -49.839703 -2.919067 -13.708525 -7.363474 -3.720938 18.141151 -14.05274 -3.242673 1e-05 -18.78727 -3e-06 -0.429712 -8.456044 2.555504 2e-06 0.0 -0.0 -15.923538 -20.094481 -5.473583 30.419214 -7.190828 1.735928 3e-06 -8.162925 -1e-06 -1.861902 -22.861469 -6.167941 -2e-06 -1e-06 -1e-06 -178.904953 -3.916827 0.382282 16.650015 -0.141775 0.019796 -82.062019 -3.944551 -6.539042 -5.284631 1.591182 2.137694 -0.999998 0.0 0.0 3.835196 -2.802929 -11.59772 15.953526 0.036184 -0.050852 -83.388573 -7.345258 -6.002282 -5.601924 0.494207 1.596097 -1.000002 0.0 -0.0 
0.0 0.0 0.0 0.0 -0.0 0.0 -2.33771 99.321724 3.337209 90.594086 4.372999 95.49868 -1.898432 -0.707127 -0.096484 -11.253032 -0.660426 -0.069235 19.198637 0.47727 -2.886798 19.061548 0.755226 2.632663 -2.588007 -0.713661 -0.488038 -32.621506 -0.576316 -1.627064 6e-06 0.0 0.0 0.032427 -0.008973 -0.027791 0.060117 -0.048616 -0.04101 0.094587 0.026018 -0.008172 -137.406845 -76.267586 146.655701 29.457523 -30.705187 -59.430542 66.870865 -0.292598 0.812209 -5.411555 10.713387 -73.901131 17.636629 -26.322735 52.411194 -19.466661 -14.395598 29.410385 -4e-06 -8.774819 -1e-06 16.537281 -17.746181 6.021246 -0.609776 -1.795654 -3.889328 -4.807086 -11.046808 -2.937851 7e-06 -20.976015 0.0 -5.019967 -25.033554 -4.031878 5e-06 -1e-06 0.0 -10.634529 -5.686967 -3.565588 10.573275 -17.922951 -3.113904 5e-06 -13.821206 1e-06 -0.501776 -31.181505 -4.027015 -11.910703 -60.906265 7.324989 -13.982711 -7.150197 -2.87504 13.77273 -8.401492 -3.218245 0.347739 -34.211544 0.771654 -0.963029 -17.733366 2.621021 -1e-06 0.0 -1e-06 -17.346413 -20.095215 -4.201781 21.757555 -1.638378 3.866427 3e-06 -6.338821 -0.0 -1.697587 -22.591742 -6.194005 -1e-06 -3e-06 -2e-06 18.73856 -76.867943 172.568069 29.116745 -23.52223 -53.730728 68.364357 -2.328929 0.606885 -14.325334 13.148542 -52.742901 22.182114 -20.375895 49.933327 -16.701813 -16.743528 28.476534 -3e-06 -12.690601 0.0 16.748009 -17.453499 2.711755 -0.105919 -1.513857 -4.275882 -5.039041 -5.612873 -2.953558 5e-06 -11.020525 -2e-06 -6.111297 -15.895334 -3.840472 0.0 0.0 0.0 -10.283371 -5.680287 -4.34184 11.028296 -11.302404 -2.372633 -1.384269 -14.238579 -6.320123 -0.625435 -26.924187 -3.827603 -4.950756 -49.770252 -2.921952 -13.708526 -7.363476 -3.720941 18.141151 -14.052739 -3.242676 8e-06 -18.78727 -2e-06 -0.429713 -8.456044 2.555504 0.0 -0.0 -0.0 -15.923534 -20.094486 -5.473588 30.419222 -7.190829 1.735924 3e-06 -8.162928 -2e-06 -1.861902 -22.861473 -6.167944 -3e-06 -2e-06 -1e-06 -178.973129 -3.960621 0.442661 16.78821 -0.14272 0.012993 -82.122383 -4.01057 -6.593758 -5.300405 1.571462 2.133645 -0.999999 -0.0 0.0 3.75024 -2.783962 -11.513744 16.135689 0.04398 -0.058241 -83.492744 -7.392967 -5.977628 -5.584078 0.49116 1.595097 -1.000002 1e-06 -0.0 
0.0 0.0 0.0 0.0 -0.0 0.0 -2.399888 99.310341 3.339282 90.578545 4.382897 95.447166 -1.9429 -0.732876 -0.117828 -11.27767 -0.681949 -0.103736 19.116951 0.483439 -2.873703 19.07939 0.80929 2.588217 -2.600431 -0.686654 -0.338199 -32.357868 -0.483912 -1.451937 6e-06 0.0 0.0 0.03534 -0.009191 -0.027392 0.048329 -0.04365 -0.041996 0.086083 0.02066 -0.007022 -137.238632 -76.284454 146.50354 29.080729 -30.555534 -58.389675 67.045738 -0.050619 0.784593 -5.237707 10.543671 -73.668144 17.636633 -26.322735 52.411201 -19.466663 -14.395602 29.410393 -1e-06 -8.774822 -1e-06 16.436924 -17.767181 6.10046 -0.609778 -1.795655 -3.889326 -4.807092 -11.046813 -2.93785 4e-06 -20.976021 -1e-06 -5.019974 -25.033562 -4.03188 6e-06 -0.0 -0.0 -10.634537 -5.686971 -3.565583 10.573277 -17.922956 -3.113903 2e-06 -13.821211 3e-06 -0.501778 -31.181511 -4.027019 -11.918949 -60.867729 7.327945 -13.982719 -7.150199 -2.875038 13.772733 -8.401494 -3.218243 0.347737 -34.211559 0.771653 -0.963029 -17.733376 2.62102 -1e-06 0.0 -0.0 -17.346426 -20.095224 -4.201778 21.757568 -1.638375 3.866428 3e-06 -6.338825 -1e-06 -1.69759 -22.591755 -6.194008 -1e-06 -3e-06 -2e-06 18.97015 -76.598114 172.39975 29.085405 -23.589668 -53.421539 69.656906 -2.071726 0.702684 -14.294577 13.30171 -51.68446 22.182114 -20.375891 49.933311 -16.701815 -16.743528 28.476532 -2e-06 -12.690602 1e-06 16.789917 -17.554157 2.671901 -0.10592 -1.513854 -4.275881 -5.039043 -5.612875 -2.953557 4e-06 -11.020527 -3e-06 -6.111298 -15.895338 -3.840472 0.0 0.0 1e-06 -10.283372 -5.680289 -4.341838 11.028294 -11.302407 -2.372633 -1.384268 -14.238584 -6.320123 -0.625438 -26.924198 -3.827602 -4.943685 -49.76873 -2.929683 -13.708526 -7.363477 -3.720938 18.141151 -14.052741 -3.242678 7e-06 -18.787271 -3e-06 -0.42971 -8.456045 2.555503 2e-06 0.0 1e-06 -15.923539 -20.094486 -5.473582 30.419218 -7.190826 1.735923 2e-06 -8.162927 -1e-06 -1.861899 -22.861473 -6.167945 -2e-06 -2e-06 -0.0 -178.975357 -4.022915 0.500787 16.857353 -0.138455 0.004246 -82.152565 -4.115746 -6.690239 -5.31028 1.548401 2.130379 -0.999999 0.0 0.0 3.712969 -2.735941 -11.433163 16.242321 0.038531 -0.05703 -83.555771 -7.40804 -5.953537 -5.538774 0.494105 1.598026 -1.000002 0.0 0.0 
